<svg xmlns="http://www.w3.org/2000/svg" version="1.1" xmlns:xlink="http://www.w3.org/1999/xlink" width="88" height="97"><svg viewBox="0 0 88 97" fill="none" xmlns="http://www.w3.org/2000/svg" class="">
<path d="M58.688 48.3334C58.688 56.3415 52.255 62.8334 44.3196 62.8334C36.3842 62.8334 29.9512 56.3415 29.9512 48.3334C29.9512 40.3253 36.3842 33.8334 44.3196 33.8334C52.255 33.8334 58.688 40.3253 58.688 48.3334Z" fill="currentColor"></path>
<path d="M58.688 14.5C58.688 22.5081 52.255 29 44.3196 29C36.3842 29 29.9512 22.5081 29.9512 14.5C29.9512 6.49187 36.3842 0 44.3196 0C52.255 0 58.688 6.49187 58.688 14.5Z" fill="currentColor"></path>
<path d="M87.7212 65.25C87.7212 73.2581 81.2882 79.75 73.3528 79.75C65.4174 79.75 58.9844 73.2581 58.9844 65.25C58.9844 57.2419 65.4174 50.75 73.3528 50.75C81.2882 50.75 87.7212 57.2419 87.7212 65.25Z" fill="currentColor"></path>
<path d="M87.7271 31.4171C87.7271 39.4252 81.2941 45.9171 73.3587 45.9171C65.423 45.9171 58.9902 39.4252 58.9902 31.4171C58.9902 23.409 65.423 16.9171 73.3587 16.9171C81.2941 16.9171 87.7271 23.409 87.7271 31.4171Z" fill="currentColor"></path>
<path d="M58.688 82.1667C58.688 90.1749 52.255 96.6667 44.3196 96.6667C36.3842 96.6667 29.9512 90.1749 29.9512 82.1667C29.9512 74.1586 36.3842 67.6667 44.3196 67.6667C52.255 67.6667 58.688 74.1586 58.688 82.1667Z" fill="currentColor"></path>
<path d="M29.653 31.4166C29.653 39.4247 23.22 45.9166 15.2844 45.9166C7.34897 45.9166 0.916016 39.4247 0.916016 31.4166C0.916016 23.4085 7.34897 16.9166 15.2844 16.9166C23.22 16.9166 29.653 23.4085 29.653 31.4166Z" fill="currentColor"></path>
<path d="M29.649 65.2493C29.649 73.2574 23.216 79.7493 15.2805 79.7493C7.34507 79.7493 0.912109 73.2574 0.912109 65.2493C0.912109 57.2412 7.34507 50.7493 15.2805 50.7493C23.216 50.7493 29.649 57.2412 29.649 65.2493Z" fill="currentColor"></path>
</svg><style>@media (prefers-color-scheme: light) { :root { filter: none; } }
</style></svg>